<?xml version="1.0" standalone="no"?>
<!DOCTYPE svg PUBLIC "-//W3C//DTD SVG 20010904//EN"
 "http://www.w3.org/TR/2001/REC-SVG-20010904/DTD/svg10.dtd">
<svg version="1.0" xmlns="http://www.w3.org/2000/svg"
 width="100%" height="100%" viewBox="0 0 500.000000 200.000000"
 preserveAspectRatio="xMidYMid meet">

<g transform="translate(0.000000,200.000000) scale(0.100000,-0.100000)"
fill="#FEDD57" stroke="none">
<path d="M2413 1919 c-33 -12 -28 -19 12 -17 19 1 38 -2 42 -5 3 -4 -9 -7 -28
-7 -42 0 -67 -14 -48 -26 7 -4 14 -3 17 4 5 15 38 16 47 2 3 -5 1 -10 -5 -10
-7 0 -9 -8 -4 -22 l7 -23 -23 20 -22 20 -18 -23 c-18 -22 -60 -31 -60 -12 0 6
5 10 11 10 5 0 7 5 3 11 -3 6 -15 8 -26 6 -19 -5 -19 -5 -2 14 17 19 17 20 -2
13 -31 -11 -46 -26 -34 -34 7 -4 3 -14 -11 -26 -22 -19 -22 -19 -15 6 5 20 -4
13 -44 -29 -27 -30 -50 -61 -50 -69 0 -8 16 6 36 30 20 23 38 44 39 46 2 2 12
-1 23 -7 13 -7 22 -7 30 1 7 7 14 9 17 7 2 -3 -19 -33 -48 -66 -41 -49 -55
-59 -69 -52 -11 6 -19 5 -24 -3 -5 -8 -10 -6 -14 7 -6 18 -8 18 -20 -5 -21
-39 -39 -119 -46 -200 -9 -101 15 -213 62 -298 56 -100 98 -140 184 -176 8 -4
26 -13 40 -21 49 -29 206 -7 260 35 14 11 35 25 48 32 12 6 22 17 22 24 0 7 8
18 19 23 41 23 55 60 66 181 5 55 5 55 -10 25 -8 -16 -13 -22 -10 -12 3 10 5
33 5 50 0 24 3 28 10 17 6 -9 10 -10 10 -3 0 6 -4 15 -10 18 -5 3 -10 18 -10
33 0 19 -3 23 -9 13 -7 -11 -10 -10 -14 5 -2 11 -5 32 -6 47 0 15 -7 40 -16
55 -13 26 -14 26 -15 5 0 -13 -6 -23 -14 -23 -8 0 -16 -5 -18 -11 -2 -6 -15 5
-29 25 l-25 35 4 -57 c2 -31 -1 -68 -7 -82 -10 -21 -11 -16 -7 30 3 30 1 74
-3 98 -5 23 -5 45 0 48 5 3 9 -2 9 -12 0 -14 2 -15 17 -3 11 9 14 10 10 2 -8
-12 17 -73 29 -73 4 0 3 12 -1 28 -6 26 -6 26 10 7 16 -19 16 -19 10 10 -8 38
-14 43 -25 25 -8 -13 -10 -12 -10 2 0 10 -10 20 -25 24 -26 6 -32 18 -15 29 5
3 7 12 4 19 -3 7 2 19 11 26 13 11 18 11 28 -1 7 -8 11 -12 9 -10 -1 2 5 13
15 23 9 10 12 18 6 18 -5 0 -10 6 -10 13 0 6 -3 23 -7 36 -6 16 -5 21 3 17 16
-11 13 20 -4 34 -8 6 -18 9 -24 6 -5 -3 -12 0 -14 6 -4 10 -6 10 -6 0 -1 -7
-5 -10 -11 -7 -5 3 -10 1 -10 -4 0 -6 -7 -11 -16 -11 -9 0 -14 6 -11 13 3 8
-3 20 -14 28 -10 7 -19 20 -19 28 0 11 3 11 18 -2 10 -10 22 -14 25 -10 4 3
-3 12 -16 19 -73 42 -129 57 -164 43z m20 -126 c-7 -2 -19 -2 -25 0 -7 3 -2 5
12 5 14 0 19 -2 13 -5z m-43 -8 c0 -7 -30 -13 -34 -7 -3 4 4 9 15 9 10 1 19 0
19 -2z m-14 -42 c-1 -26 -20 -30 -42 -9 -12 13 -12 16 2 24 27 15 42 10 40
-15z m-53 -37 c7 -19 -4 -31 -46 -51 -46 -21 -62 -13 -18 10 26 13 30 19 21
35 -5 10 -10 21 -10 23 0 10 49 -6 53 -17z m109 -17 c22 2 27 -1 22 -13 -4
-11 0 -16 14 -16 36 0 52 -12 72 -51 11 -21 29 -43 41 -49 12 -7 18 -18 15
-26 -3 -8 -2 -14 2 -14 4 0 6 -44 4 -97 -5 -105 -18 -144 -67 -195 -45 -48
-115 -31 -202 49 -55 50 -64 79 -58 171 5 71 8 80 46 125 24 27 38 54 35 62
-4 10 1 15 16 15 21 0 21 0 2 15 -16 12 -17 16 -4 24 8 5 19 7 25 3 5 -3 22
-5 37 -3z"/>
<path d="M1446 1877 c-10 -52 -5 -578 5 -571 5 3 9 0 9 -6 0 -6 3 -9 8 -7 4 3
8 -20 10 -51 3 -48 1 -54 -12 -43 -21 17 -24 5 -21 -79 2 -57 8 -84 25 -113
24 -40 27 -42 33 -11 8 41 19 55 38 49 14 -5 19 -1 19 12 0 15 2 16 10 3 8
-13 11 -13 22 -1 11 11 11 13 0 7 -10 -6 -11 -1 -7 17 7 24 6 25 -29 17 -32
-7 -36 -6 -36 11 0 10 4 19 10 19 5 0 7 8 3 18 -4 12 0 10 15 -7 15 -16 27
-21 39 -16 10 5 21 7 26 7 11 -3 8 5 -8 21 -12 13 -9 15 25 15 22 1 40 -3 40
-8 0 -5 20 -12 45 -15 56 -9 41 -28 -25 -33 -25 -2 -54 -5 -65 -6 -22 -1 -23
-35 -2 -48 8 -5 4 -8 -8 -9 l-20 0 20 -9 c11 -5 16 -9 10 -10 -5 -1 1 -5 15
-9 44 -13 143 -12 189 1 49 15 63 42 27 53 l-21 8 21 4 c36 7 49 127 15 138
-10 3 -78 -4 -151 -15 -160 -24 -170 -24 -170 -4 0 8 5 12 10 9 16 -10 12 5
-7 23 -16 16 -16 16 -10 0 3 -10 2 -18 -3 -18 -6 0 -11 15 -11 33 l-1 32 -8
-30 c-4 -16 -8 -22 -9 -12 0 10 -5 15 -11 12 -5 -3 -10 -1 -10 4 0 6 5 11 10
11 6 0 10 8 10 19 0 10 6 24 14 30 11 10 15 8 19 -6 4 -15 5 -14 6 4 0 12 -3
25 -9 28 -14 9 -13 122 1 127 9 3 9 10 -1 27 -7 14 -8 21 -1 17 6 -4 13 3 15
16 3 13 7 32 9 43 3 15 6 12 12 -13 13 -54 25 -47 25 16 0 32 3 113 7 180 l6
121 -29 12 c-16 6 -52 13 -80 16 l-51 5 -7 -35z m23 -479 c0 -46 -3 -57 -9
-42 -8 19 -3 104 6 104 2 0 4 -28 3 -62z m48 -20 c-3 -8 -6 -5 -6 6 -1 11 2
17 5 13 3 -3 4 -12 1 -19z m363 -228 c0 -5 -5 -10 -11 -10 -5 0 -7 5 -4 10 3
6 8 10 11 10 2 0 4 -4 4 -10z m-60 -50 c0 -5 -7 -10 -15 -10 -8 0 -15 5 -15
10 0 6 7 10 15 10 8 0 15 -4 15 -10z"/>
<path d="M3255 1900 c-106 -14 -128 -23 -157 -66 -53 -76 -77 -206 -52 -280
32 -97 83 -129 189 -119 43 4 75 3 79 -3 3 -5 17 -7 31 -5 40 8 71 -4 84 -34
l13 -28 -24 23 c-13 12 -31 22 -39 22 -8 0 1 -14 22 -33 29 -27 35 -40 37 -78
2 -24 -4 -61 -12 -81 l-16 -36 -92 1 c-57 1 -105 -4 -125 -12 -18 -7 -56 -11
-87 -9 -38 2 -56 -1 -56 -9 0 -6 -6 -14 -12 -16 -7 -3 -4 -6 7 -7 51 -4 90
-20 44 -18 -48 2 -61 -2 -56 -16 4 -9 -1 -17 -11 -19 -14 -4 -14 -5 -1 -6 9 0
22 -12 29 -26 7 -14 17 -25 22 -25 5 0 7 4 3 9 -8 14 31 24 58 15 12 -4 36 -7
52 -7 28 1 28 1 5 -6 -41 -11 -5 -24 72 -25 61 0 66 -2 46 -13 -20 -12 -15
-13 45 -9 61 3 70 6 81 27 6 13 18 24 26 24 8 0 19 10 25 21 6 12 16 29 23 37
7 8 12 19 10 23 -1 5 6 24 15 41 18 34 23 163 6 163 -5 0 -9 9 -9 21 0 11 -5
29 -10 40 -16 30 -3 22 15 -8 15 -27 15 -27 9 -3 -4 14 -8 33 -9 43 -1 10 -25
41 -55 68 -42 38 -61 49 -87 49 -18 0 -33 5 -33 10 0 6 -26 10 -58 10 -48 0
-64 5 -88 25 -16 14 -32 25 -35 25 -4 0 -9 10 -13 22 -8 33 14 97 36 104 10 3
15 10 12 16 -4 6 -2 8 4 4 6 -3 13 -2 17 4 4 6 11 8 16 4 5 -3 23 2 41 10 33
17 52 21 30 7 -8 -5 21 -11 74 -15 48 -3 89 -4 92 -1 3 3 7 34 9 68 l3 62 -53
13 c-58 13 -101 14 -192 2z m115 -400 c18 -6 7 -8 -40 -8 -47 0 -58 2 -40 8
14 4 32 8 40 8 8 0 26 -4 40 -8z m101 -36 c19 -23 -15 -18 -35 5 -17 19 -17
19 3 14 11 -3 26 -11 32 -19z m-251 -352 c30 -5 41 -10 32 -16 -16 -10 -119 2
-127 15 -7 10 29 11 95 1z"/>
<path d="M2220 1740 c-6 -11 -8 -20 -6 -20 3 0 10 9 16 20 6 11 8 20 6 20 -3
0 -10 -9 -16 -20z"/>
<path d="M2656 1632 c-3 -5 1 -15 9 -22 16 -14 20 -3 6 19 -5 8 -11 9 -15 3z"/>
<path d="M1580 1430 c0 -38 3 -70 8 -70 4 0 7 32 7 70 0 39 -3 70 -7 70 -5 0
-8 -31 -8 -70z"/>
<path d="M3225 1420 c-18 -8 -17 -9 8 -9 16 -1 26 3 22 9 -3 6 -7 10 -8 9 -1
0 -11 -4 -22 -9z"/>
<path d="M1563 1290 c0 -25 2 -35 4 -22 2 12 2 32 0 45 -2 12 -4 2 -4 -23z"/>
<path d="M1581 1314 c0 -11 3 -14 6 -6 3 7 2 16 -1 19 -3 4 -6 -2 -5 -13z"/>
<path d="M3563 1260 c0 -25 2 -35 4 -22 2 12 2 32 0 45 -2 12 -4 2 -4 -23z"/>
<path d="M1635 1140 c4 -6 11 -8 16 -5 14 9 11 15 -7 15 -8 0 -12 -5 -9 -10z"/>
<path d="M1536 1021 c-4 -5 1 -8 9 -7 21 3 31 16 12 16 -9 0 -18 -4 -21 -9z"/>
<path d="M3020 1010 c-12 -8 -10 -10 8 -10 13 0 20 4 17 10 -7 12 -6 12 -25 0z"/>
<path d="M345 990 c-106 -14 -128 -23 -157 -66 -53 -76 -77 -206 -52 -280 32
-97 83 -129 189 -119 43 4 75 3 79 -3 3 -5 17 -7 31 -5 40 8 71 -4 84 -34 l13
-28 -24 23 c-13 12 -31 22 -39 22 -8 0 1 -14 22 -33 29 -27 35 -40 37 -78 2
-24 -4 -61 -12 -81 l-16 -36 -92 1 c-57 1 -105 -4 -125 -12 -18 -7 -56 -11
-87 -9 -38 2 -56 -1 -56 -9 0 -6 -6 -14 -12 -16 -7 -3 -4 -6 7 -7 51 -4 90
-20 44 -18 -48 2 -61 -2 -56 -16 4 -9 -1 -17 -11 -19 -14 -4 -14 -5 -1 -6 9 0
22 -12 29 -26 7 -14 17 -25 22 -25 5 0 7 4 3 9 -8 14 31 24 57 15 13 -4 37 -7
53 -7 28 1 28 1 5 -6 -41 -11 -5 -24 72 -25 61 0 66 -2 46 -13 -20 -12 -15
-13 45 -9 61 3 70 6 81 27 6 13 18 24 26 24 8 0 19 10 25 21 6 12 16 29 23 37
7 8 12 19 10 23 -1 5 6 24 15 41 18 34 23 163 6 163 -5 0 -9 9 -9 21 0 11 -5
29 -10 40 -16 30 -3 22 15 -8 15 -27 15 -27 9 -3 -4 14 -8 33 -9 43 -1 10 -25
41 -55 68 -42 38 -61 49 -87 49 -18 0 -33 5 -33 10 0 6 -26 10 -58 10 -48 0
-64 5 -88 25 -16 14 -32 25 -35 25 -4 0 -9 10 -13 22 -8 33 14 97 36 104 10 3
15 10 12 16 -4 6 -2 8 4 4 6 -3 13 -2 17 4 4 6 11 8 16 4 5 -3 23 2 41 10 33
17 52 21 30 7 -8 -5 21 -11 74 -15 48 -3 89 -4 92 -1 3 3 7 34 9 68 l3 62 -53
13 c-58 13 -101 14 -192 2z m115 -400 c18 -6 7 -8 -40 -8 -47 0 -58 2 -40 8
14 4 32 8 40 8 8 0 26 -4 40 -8z m101 -36 c19 -23 -15 -18 -35 5 -17 19 -17
19 3 14 11 -3 26 -11 32 -19z m-251 -352 c30 -5 41 -10 32 -16 -16 -10 -119 2
-127 15 -7 10 29 11 95 1z"/>
<path d="M4028 803 c-11 -3 -16 -13 -14 -31 1 -15 -2 -33 -7 -39 -13 -18 -38
-16 -31 2 4 8 1 15 -6 15 -6 0 -8 5 -5 10 10 17 -9 11 -46 -14 -43 -29 -115
-132 -128 -183 -33 -130 -20 -248 37 -342 32 -53 102 -120 125 -121 4 0 21
-10 37 -21 24 -18 38 -21 83 -16 56 5 124 34 146 61 7 9 17 13 22 10 5 -3 9 2
9 11 0 8 6 18 14 21 26 10 43 48 51 113 5 46 4 62 -4 57 -15 -9 -14 7 1 22 8
8 8 15 -1 26 -7 8 -10 19 -7 25 3 5 -1 12 -10 15 -13 5 -15 15 -11 41 3 20 3
34 -1 32 -4 -2 -15 4 -24 14 -9 10 -13 19 -8 21 6 2 6 15 1 33 -5 17 -10 23
-10 15 -1 -12 -3 -13 -10 -1 -7 10 -10 10 -16 1 -4 -7 -1 -16 6 -21 8 -5 9 -9
3 -9 -5 0 -19 7 -30 15 -11 8 -14 15 -6 15 6 0 12 10 12 21 0 18 2 19 15 9 12
-10 15 -10 15 0 0 7 7 10 15 6 8 -3 15 -1 15 5 0 6 5 7 12 3 7 -4 8 -3 4 5 -4
6 -12 9 -17 6 -5 -4 -9 1 -9 9 0 9 -4 16 -10 16 -5 0 -10 5 -10 11 0 5 4 7 10
4 11 -7 2 23 -12 42 -9 12 -32 12 -44 0 -4 -4 -12 -7 -18 -7 -6 0 -4 5 4 10
11 7 12 10 2 10 -7 0 -21 7 -30 16 -15 15 -14 16 7 9 34 -10 18 9 -21 28 -40
18 -78 26 -100 20z m26 -35 c-1 -13 -3 -27 -3 -33 -1 -5 -5 -4 -10 4 -9 14 -3
51 8 51 4 0 7 -10 5 -22z m-134 -53 c-17 -21 -5 -31 17 -14 17 13 17 13 3 -6
-8 -11 -25 -31 -37 -45 -13 -14 -23 -28 -23 -31 0 -3 -11 -4 -25 -1 -16 3 -22
8 -17 17 15 25 86 104 91 100 2 -3 -2 -11 -9 -20z m80 -55 c0 -23 -25 -27 -33
-6 -5 13 5 23 26 25 4 1 7 -8 7 -19z m-40 -30 c0 -5 -7 -7 -15 -4 -8 4 -15 8
-15 10 0 2 7 4 15 4 8 0 15 -4 15 -10z m-5 -20 c3 -5 -2 -10 -12 -10 -11 0
-24 -5 -31 -12 -9 -9 -12 -9 -12 0 0 10 27 31 42 32 4 0 10 -4 13 -10z m101 1
c-3 -5 8 -11 24 -14 18 -4 35 -17 44 -34 8 -15 23 -38 34 -51 l21 -23 3 33 3
33 6 -37 c3 -22 1 -36 -6 -35 -6 1 -12 -31 -15 -79 -6 -86 -21 -121 -65 -150
-24 -16 -28 -16 -66 1 -21 10 -58 38 -80 62 l-40 43 6 67 c4 55 10 74 35 104
16 21 30 43 30 48 0 6 5 11 11 11 8 0 8 5 -1 15 -11 13 -7 15 24 15 21 0 35
-4 32 -9z m151 -103 c-3 -8 -6 -5 -6 6 -1 11 2 17 5 13 3 -3 4 -12 1 -19z m37
-18 c-6 -5 -24 21 -24 34 0 6 6 1 14 -10 8 -10 12 -21 10 -24z m-48 -57 c-10
-10 -19 5 -10 18 6 11 8 11 12 0 2 -7 1 -15 -2 -18z"/>
<path d="M3885 669 c-4 -6 -5 -12 -2 -15 2 -3 7 2 10 11 7 17 1 20 -8 4z"/>
<path d="M2393 788 c-13 -17 -26 -54 -79 -233 -72 -242 -76 -255 -85 -255 -4
0 -16 -25 -25 -55 -12 -36 -21 -51 -26 -43 -5 9 -8 8 -8 -5 0 -9 -9 -25 -19
-34 -18 -15 -19 -19 -5 -45 8 -15 20 -28 27 -28 9 0 9 -2 0 -8 -7 -4 18 -7 55
-7 55 0 69 3 78 19 6 10 9 26 7 35 -2 9 5 45 16 80 11 36 18 68 15 73 -3 4 6
20 20 35 13 14 27 38 31 52 3 14 14 49 25 76 33 88 81 277 75 293 -5 14 -7 14
-15 2 -8 -13 -10 -12 -10 3 0 9 -4 17 -9 17 -5 0 -17 7 -25 16 -9 8 -16 11
-16 5 0 -6 -5 -11 -11 -11 -6 0 -9 7 -5 15 7 18 2 19 -11 3z"/>
<path d="M3542 787 c-20 -25 -91 -174 -102 -215 -8 -31 -18 -46 -37 -53 -14
-5 -27 -8 -28 -7 -7 9 -25 48 -25 55 0 4 9 -3 20 -17 l20 -25 -10 30 c-6 17
-23 50 -37 75 -21 36 -23 42 -7 30 18 -15 18 -14 0 15 -45 72 -65 93 -86 88
-11 -3 -20 -9 -20 -13 0 -5 -9 -11 -20 -15 -19 -6 -19 -8 -3 -48 19 -48 47
-99 79 -142 12 -16 31 -49 43 -72 l21 -42 -21 -48 c-12 -26 -22 -58 -24 -70
-1 -13 -14 -35 -29 -49 -14 -15 -26 -31 -26 -36 0 -5 -11 -34 -25 -64 -14 -30
-25 -57 -25 -60 0 -10 25 -30 45 -36 11 -3 27 -9 36 -12 11 -5 22 2 34 20 9
14 12 23 6 19 -14 -8 -4 45 12 60 7 7 7 5 2 -5 -5 -9 -4 -12 1 -7 5 5 9 12 9
15 0 4 19 44 43 90 24 45 38 82 33 82 -6 0 1 25 16 55 15 30 31 55 35 55 4 0
-2 -16 -14 -35 -11 -20 -19 -38 -16 -40 2 -2 19 23 37 55 18 33 37 60 43 60 5
0 7 7 4 16 -3 8 -2 13 3 10 9 -6 20 16 61 123 45 120 45 121 19 139 -36 26
-57 32 -67 19z m-209 -442 c-3 -9 -8 -14 -10 -11 -3 3 -2 9 2 15 9 16 15 13 8
-4z"/>
<path d="M4678 790 c-82 -10 -110 -25 -137 -72 -31 -55 -41 -180 -17 -225 20
-40 53 -65 106 -83 38 -13 43 -12 52 3 10 19 38 23 38 7 0 -7 13 -9 33 -5 25
5 37 2 48 -11 13 -15 12 -16 -11 -10 l-25 7 26 -24 c21 -19 26 -32 24 -63 -5
-78 -5 -79 -76 -81 -35 -1 -77 -4 -94 -7 -110 -20 -109 -20 -101 0 5 15 1 13
-17 -6 l-24 -25 31 -6 31 -6 -33 -2 c-19 0 -31 -5 -27 -11 3 -5 2 -10 -3 -10
-5 0 -9 -7 -9 -15 0 -8 7 -15 14 -15 12 0 12 -3 -1 -16 -13 -12 -13 -18 -3
-29 10 -11 13 -9 19 9 3 11 6 17 7 13 1 -5 8 -1 17 8 9 9 23 14 31 11 8 -3 18
-6 23 -6 5 0 11 -8 15 -19 3 -11 16 -19 33 -19 15 -1 56 -4 92 -6 l65 -4 42
46 c24 26 42 51 41 57 0 5 6 27 15 47 22 48 22 114 2 122 -8 3 -15 10 -15 16
0 6 4 8 10 5 7 -4 7 2 1 18 -6 14 -7 28 -4 31 3 3 -6 15 -21 27 -14 11 -34 28
-43 37 -27 28 -61 42 -67 29 -3 -9 -5 -8 -5 1 -1 8 -19 12 -53 13 -46 0 -56 4
-76 29 -18 23 -22 37 -16 64 9 50 66 71 168 62 l73 -7 7 32 c13 68 10 75 -45
87 -55 13 -56 13 -141 2z m85 -317 c-7 -2 -21 -2 -30 0 -10 3 -4 5 12 5 17 0
24 -2 18 -5z m-93 -309 c0 -2 -13 -4 -30 -4 -16 0 -30 4 -30 8 0 5 14 7 30 4
17 -2 30 -6 30 -8z"/>
<path d="M1143 544 c2 -219 0 -254 -16 -288 -16 -37 -19 -38 -56 -33 -51 6
-88 34 -101 74 -7 21 -10 109 -8 247 2 118 1 217 -2 219 -11 12 -98 18 -104 8
-11 -17 -23 -442 -15 -501 11 -78 25 -140 34 -148 4 -4 6 2 3 13 -4 17 0 20
31 20 43 0 59 -9 71 -41 8 -21 16 -24 60 -24 27 0 50 5 50 10 0 6 5 10 11 10
5 0 7 -4 4 -10 -8 -14 18 -13 32 1 8 8 13 7 18 -2 5 -8 4 -10 -3 -5 -7 4 -12
2 -12 -3 0 -6 -10 -11 -22 -12 -19 -1 -18 -2 7 -10 19 -5 31 -5 33 1 2 6 12
10 23 10 10 0 19 5 19 10 0 6 7 10 15 10 8 0 15 4 15 9 0 5 -10 7 -22 3 -18
-4 -20 -2 -13 14 4 10 8 26 9 35 0 9 6 16 13 16 7 0 11 -3 9 -6 -2 -3 0 -15 5
-26 l9 -20 -2 20 c-2 11 1 25 5 32 4 7 8 38 8 70 1 32 5 63 10 70 6 6 6 14 2
16 -11 7 -10 88 1 106 5 7 5 38 2 69 -4 32 -7 101 -7 155 0 109 -2 111 -77
123 l-41 6 2 -248z m87 -134 c0 -5 -2 -10 -4 -10 -3 0 -8 5 -11 10 -3 6 -1 10
4 10 6 0 11 -4 11 -10z m0 -44 c0 -11 -19 -15 -25 -6 -3 5 1 10 9 10 9 0 16
-2 16 -4z m-36 -91 c3 -8 1 -15 -4 -15 -6 0 -10 7 -10 15 0 8 2 15 4 15 2 0 6
-7 10 -15z m37 -26 c-5 -13 -10 -19 -10 -12 -1 15 10 45 15 40 3 -2 0 -15 -5
-28z m-51 -70 c0 -6 -4 -7 -10 -4 -5 3 -10 11 -10 16 0 6 5 7 10 4 6 -3 10
-11 10 -16z"/>
<path d="M2705 777 c-28 -15 -38 -108 -31 -288 7 -176 7 -215 4 -302 -1 -27 3
-51 9 -55 6 -4 14 -17 17 -30 6 -18 12 -21 29 -16 12 4 26 12 32 19 6 8 19 9
35 5 24 -8 24 -8 3 -9 -13 -1 -23 -5 -23 -11 0 -6 33 -10 80 -10 44 0 80 4 80
9 0 5 20 6 45 3 34 -3 45 -1 45 9 1 8 3 40 6 73 6 61 -4 81 -36 71 -8 -2 -26
-6 -40 -9 -14 -2 -37 -9 -52 -15 -23 -9 -28 -8 -28 5 0 14 -2 14 -16 0 -8 -9
-20 -13 -26 -10 -6 4 -5 10 3 15 11 7 10 9 -3 9 -13 0 -18 8 -18 28 0 15 -3
45 -6 67 -5 36 -4 38 9 23 11 -14 29 -18 76 -18 l61 0 2 70 c0 39 1 76 2 83 1
9 -21 12 -76 12 -81 0 -114 13 -90 37 7 7 12 22 12 34 0 25 35 34 136 34 37 0
65 5 71 13 13 15 23 130 13 146 -8 14 -302 21 -325 8z m15 -197 c0 -5 -5 -10
-11 -10 -5 0 -7 5 -4 10 3 6 8 10 11 10 2 0 4 -4 4 -10z m17 -105 c1 0 -7 -7
-19 -14 -11 -7 -17 -8 -14 -2 4 5 2 12 -4 16 -6 4 -8 11 -4 16 3 6 12 5 22 -3
10 -7 18 -13 19 -13z m86 8 c-7 -2 -19 -2 -25 0 -7 3 -2 5 12 5 14 0 19 -2 13
-5z m34 -74 c1 -10 -7 -19 -22 -21 -17 -4 -22 -1 -20 11 2 9 4 19 4 23 2 15
37 3 38 -13z m73 -219 c0 -5 -5 -10 -11 -10 -5 0 -7 5 -4 10 3 6 8 10 11 10 2
0 4 -4 4 -10z m-65 -10 c3 -5 2 -10 -4 -10 -5 0 -13 5 -16 10 -3 6 -2 10 4 10
5 0 13 -4 16 -10z"/>
<path d="M2018 752 c-7 -8 -7 -25 0 -55 6 -23 16 -69 22 -102 11 -58 60 -208
78 -242 12 -20 52 -25 52 -7 0 18 -17 26 -24 12 -3 -7 -3 2 0 20 4 23 2 32 -8
32 -10 0 -10 2 1 9 8 5 10 14 6 21 -5 9 -4 11 3 6 7 -4 12 -17 12 -30 0 -12
14 -35 30 -51 17 -16 30 -25 30 -21 0 5 -10 47 -22 94 -17 65 -20 86 -10 90
14 4 17 32 2 32 -5 0 -7 7 -4 15 3 8 -2 38 -12 67 -10 29 -19 64 -20 78 -1 14
-2 31 -3 38 -1 17 -118 12 -133 -6z"/>
<path d="M1509 739 c-11 -11 -27 -18 -34 -15 -31 12 -39 -51 -39 -339 l-1
-282 35 3 c19 1 40 -1 45 -5 6 -4 17 -7 25 -7 12 1 16 22 18 114 l3 113 76 -3
c66 -3 78 -6 95 -28 10 -13 17 -32 15 -42 -3 -10 -1 -15 4 -12 6 3 9 -9 8 -28
-1 -18 -1 -55 0 -81 1 -45 2 -48 24 -41 12 3 23 10 25 15 2 4 14 6 27 3 13 -2
26 0 29 5 4 5 1 45 -5 88 -11 78 -47 163 -59 142 -5 -7 -10 -4 -14 7 -4 9 0
24 8 33 53 60 62 197 20 284 -38 77 -66 91 -187 94 -87 2 -100 0 -118 -18z
m251 -19 c0 -5 -4 -10 -10 -10 -5 0 -10 5 -10 10 0 6 5 10 10 10 6 0 10 -4 10
-10z m-41 -129 c6 -10 12 -38 13 -62 3 -38 0 -45 -23 -56 -14 -7 -46 -14 -71
-15 -25 -2 -44 -6 -41 -10 2 -5 -3 -8 -12 -8 -9 0 -13 5 -10 10 3 6 1 10 -4
10 -7 0 -11 27 -11 69 l0 70 53 4 c28 2 62 4 74 5 13 1 27 -6 32 -17z m-82
-247 c-3 -3 -12 -4 -19 -1 -8 3 -5 6 6 6 11 1 17 -2 13 -5z"/>
<path d="M315 510 c-18 -8 -17 -9 8 -9 16 -1 26 3 22 9 -3 6 -7 10 -8 9 -1 0
-11 -4 -22 -9z"/>
<path d="M653 350 c0 -25 2 -35 4 -22 2 12 2 32 0 45 -2 12 -4 2 -4 -23z"/>
<path d="M2187 329 c4 -13 8 -18 11 -10 2 7 -1 18 -6 23 -8 8 -9 4 -5 -13z"/>
<path d="M2141 310 c-2 -27 11 -60 21 -54 5 4 5 10 0 17 -6 7 -12 21 -15 32
-3 11 -5 13 -6 5z"/>
<path d="M110 100 c-12 -8 -10 -10 8 -10 13 0 20 4 17 10 -7 12 -6 12 -25 0z"/>
</g>
</svg>
